
<svg xmlns="http://www.w3.org/2000/svg" version="1.1" xmlns:xlink="http://www.w3.org/1999/xlink" preserveAspectRatio="none" x="0px" y="0px" width="256px" height="256px" viewBox="0 0 256 256">
<defs>
<g id="Layer3_0_FILL">
<path fill="#FFFFFF" stroke="none" d="
M 184.75 66.95
L 189.75 54.95 149.05 38.1
Q 128.05 29.35 107 38.15 86 46.8 77.25 67.85 68.55 88.85 77.25 110.05 85.95 130.95 106.95 139.7
L 134.45 151.4
Q 140.85 154.1 143.6 160.55 146.3 167.1 143.6 173.6 140.9 180.05 134.4 182.8 127.85 185.5 121.45 182.8
L 80.75 165.95 75.75 177.95 116.45 194.8
Q 116.6994140625 194.90390625 116.95 195 128.1015625 199.444921875 139.35 194.75 150.85 190.05 155.6 178.6 160.35 167.1 155.6 155.55 150.85 144.15 139.45 139.4
L 139.4 139.35 111.95 127.7
Q 95.9 121.05 89.25 105.05 82.6 88.95 89.25 72.85 95.9 56.75 112 50.15 128 43.45 144.05 50.1
L 184.75 66.95
M 175.2 90.05
L 180.2 78.05 139.5 61.2
Q 128.1 56.45 116.6 61.25 105.1 65.95 100.35 77.4 95.6 88.9 100.35 100.45 105.1 111.85 116.55 116.6
L 144 128.3
Q 160.05 134.95 166.7 150.95 173.35 167.05 166.7 183.15 160.05 199.25 143.95 205.85 127.95 212.55 111.9 205.9
L 71.2 189.05 66.2 201.05 106.9 217.9
Q 127.9 226.65 148.95 217.85 169.95 209.2 178.7 188.15 187.4 167.15 178.7 145.95 170 125.05 149 116.3
L 121.5 104.6
Q 115.1 101.9 112.35 95.45 109.65 88.9 112.35 82.4 115.05 75.95 121.55 73.2 128.1 70.5 134.5 73.2
L 175.2 90.05 Z"/>
</g>
</defs>

<g transform="matrix( 1, 0, 0, 1, 0,0) ">
<use xlink:href="#Layer3_0_FILL"/>
</g>
</svg>
